<mxfile host="app.diagrams.net" modified="2023-09-16T10:21:34.439Z" agent="Mozilla/5.0 (Windows NT 10.0; Win64; x64) AppleWebKit/537.36 (KHTML, like Gecko) Chrome/116.0.0.0 Safari/537.36" etag="xzGEmOr8HwWH4oANMtfj" version="21.7.5" type="github">
  <diagram id="C5RBs43oDa-KdzZeNtuy" name="Page-1">
    <mxGraphModel dx="2200" dy="5435" grid="1" gridSize="10" guides="1" tooltips="1" connect="1" arrows="1" fold="1" page="1" pageScale="1" pageWidth="827" pageHeight="1169" math="0" shadow="0">
      <root>
        <mxCell id="WIyWlLk6GJQsqaUBKTNV-0" />
        <mxCell id="WIyWlLk6GJQsqaUBKTNV-1" parent="WIyWlLk6GJQsqaUBKTNV-0" />
        <mxCell id="jpV_vs8PwQTFVZERT1kT-0" value="AShooterCharcter:ACharcter" style="swimlane;fontStyle=1;align=center;verticalAlign=top;childLayout=stackLayout;horizontal=1;startSize=26;horizontalStack=0;resizeParent=1;resizeParentMax=0;resizeLast=0;collapsible=1;marginBottom=0;whiteSpace=wrap;html=1;" parent="WIyWlLk6GJQsqaUBKTNV-1" vertex="1">
          <mxGeometry x="100" y="90" width="680" height="2600" as="geometry">
            <mxRectangle x="100" y="90" width="210" height="30" as="alternateBounds" />
          </mxGeometry>
        </mxCell>
        <mxCell id="jpV_vs8PwQTFVZERT1kT-1" value="-CameraBoom:USpringArmComponent&lt;br&gt;-FollowCamera:UCameraComponent&lt;br&gt;&lt;br&gt;-BaseTurnRate:float&lt;br&gt;-BaseLookUpRate:float&lt;br&gt;-HipTurnRate:float&lt;br&gt;-HipLookUpRate:float&lt;br&gt;-AimingTurnRate:float&lt;br&gt;-AimingLookUpRate:float&lt;br&gt;-MouseHipTurnRate:float&lt;br&gt;-MouseHipLookUpRate:float&lt;br&gt;-MouseAimingTurnRate:float&lt;br&gt;-MouseAimingLookUpRate:float&lt;br&gt;&lt;br&gt;-HipFireMontage:UAnimMontage&lt;br&gt;-ImpactParticles:UParticleSystem&lt;br&gt;-BeamParticles:UParticleSystem&amp;nbsp; //Smoke trail for bullet)&lt;br&gt;-bAiming:bool&lt;br&gt;&lt;br&gt;-CameraDefaultFOV:float (Field of view)&lt;br&gt;-CameraZoomedFOV:float&lt;br&gt;-CameraCurrentFOV:float&lt;br&gt;-ZoomInterpSpeed:float //Interp speed for zooming when aiming&lt;br&gt;&lt;br&gt;-CrosshairSpreadMultipiler:float&lt;br&gt;-CrosshairVelocityFactor:float&lt;br&gt;-CrosshairInAirFactor:float&lt;br&gt;-CroshairAimFactor:float&lt;br&gt;-CrosshairShootingFactor:float&lt;br&gt;&lt;br&gt;-bFireButtonPressed:bool&lt;br&gt;-bShouldFire:bool&amp;nbsp; //1 when we can fire, 0 when waiting for the timer&lt;br&gt;-AutoFireTimer:FTimerHandle&lt;br&gt;&lt;br&gt;-bShouldTraceForItems:bool //1 when we should trace every frame for items&lt;br&gt;-OverlappedItemCount:int8&lt;br&gt;-TraceHitItemLastFrame:AItem*&amp;nbsp; //The AItem we hit last frame&lt;br&gt;&lt;br&gt;-EquippedWeapon:AWeapon&lt;br&gt;-DefaultWeaponClass:TSubclassOf&amp;lt;AWeapon&amp;gt;&lt;br&gt;-TraceHitItem:AItem*&lt;br&gt;&lt;br&gt;-CameraInterpDistance:float&lt;br&gt;-CameraInterpElevateion:float&lt;br&gt;-AmmoMap:TMap&amp;lt;EAmmoType, int32&amp;gt;&lt;br&gt;-Starting9mmAmmo:int32&lt;br&gt;-StartingARAmmo:int32&lt;br&gt;-CombatState:ECombatState&lt;br&gt;-ReloadMontage:UAnimMontage*&lt;br&gt;-EquipMontage:UAnimMontage*&lt;br&gt;&lt;br&gt;-ClipTransform:FTransform&lt;br&gt;-HandSceneComponent:USceneComponent* //Scene component to attach to the Character&#39;s hand during reloaidng&lt;br&gt;-bCrouching:bool&lt;br&gt;-BaseMovementSpeed:float&lt;br&gt;-CrouchMovementSpeed:float&lt;br&gt;-CurrentCapsuleHalfHieght:float&lt;br&gt;-StandingCapsuleHalfheight:float&lt;br&gt;-CrouchingCapsuleHalfHeight:float&lt;br&gt;-BaseGroundFriction:float&lt;br&gt;-CrouchingGroundFriction:float&lt;br&gt;-bAimingButtonPressed:bool&lt;br&gt;&lt;br&gt;-WeaponInterpComp:USceneComponent*&lt;br&gt;-InterpComp1:USceneComponent*&lt;br&gt;-InterpComp2:USceneComponent*&lt;br&gt;..3&lt;br&gt;..4&lt;br&gt;..5&lt;br&gt;..6&lt;br&gt;-InterpLocations:TArray&amp;lt;FInterpLocation&amp;gt;&lt;br&gt;&lt;br&gt;-PickupSoundTimer:FTimerHandle&lt;br&gt;-EquipSoundTimer:FTimerHandle&lt;br&gt;-bShouldPlayPickupsound:bool&lt;br&gt;-bShouldPlayEquipSound:bool&lt;br&gt;-PickupSoundResetTime:float&lt;br&gt;-EquipsoundResetTime:float&lt;br&gt;-Inverntory:TArray&amp;lt;AItem*&amp;gt;&lt;br&gt;&lt;br&gt;-EquipItemDelegate:FEquipItemDelegate&lt;br&gt;-HighlightIconDelegate:FHighlightIconDelegate&lt;br&gt;-HighlightedSlot:int32&lt;br&gt;-Health:flaot&lt;br&gt;-MaxHealth:float&lt;br&gt;-MeleeImpactSound:USoundCue*&lt;br&gt;-BloodParticles:UParticleSystem*&lt;br&gt;-HitReactMontage:UAnimMontage*&lt;br&gt;-StunChance:float&lt;br&gt;-DeathMontage:UAnimMontage*&lt;br&gt;-bDead:bool" style="text;strokeColor=none;fillColor=none;align=left;verticalAlign=top;spacingLeft=4;spacingRight=4;overflow=hidden;rotatable=0;points=[[0,0.5],[1,0.5]];portConstraint=eastwest;whiteSpace=wrap;html=1;" parent="jpV_vs8PwQTFVZERT1kT-0" vertex="1">
          <mxGeometry y="26" width="680" height="1344" as="geometry" />
        </mxCell>
        <mxCell id="jpV_vs8PwQTFVZERT1kT-2" value="" style="line;strokeWidth=1;fillColor=none;align=left;verticalAlign=middle;spacingTop=-1;spacingLeft=3;spacingRight=3;rotatable=0;labelPosition=right;points=[];portConstraint=eastwest;strokeColor=inherit;" parent="jpV_vs8PwQTFVZERT1kT-0" vertex="1">
          <mxGeometry y="1370" width="680" height="8" as="geometry" />
        </mxCell>
        <mxCell id="jpV_vs8PwQTFVZERT1kT-3" value="+AShooterCharacter()&lt;br&gt;+TakeDamage(DamageAmount, DamageEvent, EventInstigator, DamageCauser): float&lt;br&gt;&lt;br&gt;#BeginPlay():void&lt;br&gt;&lt;br&gt;#MoveForward(Value):void&lt;br&gt;#MoveRight(Value):void&lt;br&gt;&lt;br&gt;#TurnAtRate(Rate):void&lt;br&gt;#LookUpAtRate(Rate):void&lt;br&gt;#Turn(Value):void&lt;br&gt;#LookUp(Value):void&lt;br&gt;&lt;br&gt;#FireWeapon():void&lt;br&gt;#GetBeamEndLocation(MuzzleSocketLocation:FVector&amp;amp;, OutHitResult:FHitResult&amp;amp;):bool&lt;br&gt;#AimingButtonPressed():void&lt;br&gt;#AimingButtonReleased():void&lt;br&gt;&lt;br&gt;#CameraInterpZoom(DeltaTime):void&lt;br&gt;#SetLookRates():void&lt;br&gt;#CalculateCrosshairSpread(DeltaTime):void&lt;br&gt;#FireButtonPressed():void&lt;br&gt;#FireButtonReleased():void&lt;br&gt;#StartFireTimer():void&lt;br&gt;&lt;br&gt;#AutoFireReset():void&lt;br&gt;#TraceUnderCrosshairs(OutHitResult:FHitResult&amp;amp;, OutHitLocation:FVector&amp;amp;):bool&lt;br&gt;#TraceForItems():void //Trace 4 items if OverlappedItemCount &amp;gt;0&lt;br&gt;#SpawnDefaultWeapon(): AWeapon*&lt;br&gt;#EquipWeapon(WeaponToEquip:AWeapon*, bSapping:bool):void&lt;br&gt;#DropWeapon():void&lt;br&gt;&lt;br&gt;#SelectButtonPressed():void&lt;br&gt;#SelectButtonReleased():void&lt;br&gt;&lt;br&gt;#SwapWeapon(WeaponToSwap:Aweapon*):void&lt;br&gt;&lt;br&gt;#?InitializeAmmoMap():void&lt;br&gt;#WeaponHasAmmo():bool&lt;br&gt;&lt;br&gt;#PlayFireSound():void&lt;br&gt;#SendBullet():void&lt;br&gt;#PlayGunfireMontage():void&lt;br&gt;&lt;br&gt;#reloadButtonPressed():void&lt;br&gt;#ReloadWeapon():void&lt;br&gt;#CarryingAmmo():bool //Checks to see if we have ammo of the EquippedWeapon&#39;s ammo type&lt;br&gt;#GrabClip():void&lt;br&gt;#ReleaseClip():void&lt;br&gt;#CrouchButtonPressed():void&lt;br&gt;#Jump:void&lt;br&gt;#InterpCapsuleHalfHeight(DeltaTime:float):void&lt;br&gt;&lt;br&gt;#Aim():void&lt;br&gt;#StopAiming():void&lt;br&gt;#PickupAmmo(Ammo:AAmmo*):void&lt;br&gt;#InitializeInterpLocations():void&lt;br&gt;&lt;br&gt;#FKeyPressed():void&lt;br&gt;#OneKeyPressed():void&lt;br&gt;..Two&lt;br&gt;..Three&lt;br&gt;..Four&lt;br&gt;..Five&lt;br&gt;&lt;br&gt;#ExhangeInventoryItmes(CurrentItemIndex:int32, NewItemIndex:int32):void&lt;br&gt;#GetEmptyInventorySlot():int32&lt;br&gt;#HighlightInventorySlot():void&lt;br&gt;#GetSurfaceType():EPhysicalSurface&lt;br&gt;#EndStun():void&lt;br&gt;#Die():void&lt;br&gt;#FinishDeath():void&lt;br&gt;&lt;br&gt;+Tick(DeltaTime:float):void&lt;br&gt;+SetupPlayerInputcomponent(PlayerInputcomponent:UInputComponent*):void&lt;br&gt;&lt;br&gt;-FinishReloading():void&lt;br&gt;-FinishEquipping():void&lt;br&gt;-ResetPickupSoundTimer():void&lt;br&gt;-ResetEquipSoundTimer():void&lt;br&gt;" style="text;strokeColor=none;fillColor=none;align=left;verticalAlign=top;spacingLeft=4;spacingRight=4;overflow=hidden;rotatable=0;points=[[0,0.5],[1,0.5]];portConstraint=eastwest;whiteSpace=wrap;html=1;" parent="jpV_vs8PwQTFVZERT1kT-0" vertex="1">
          <mxGeometry y="1378" width="680" height="1222" as="geometry" />
        </mxCell>
        <mxCell id="52t62K6r0B704PcLGxnU-2" style="edgeStyle=orthogonalEdgeStyle;rounded=0;orthogonalLoop=1;jettySize=auto;html=1;entryX=0.235;entryY=0.001;entryDx=0;entryDy=0;entryPerimeter=0;" parent="WIyWlLk6GJQsqaUBKTNV-1" source="jpV_vs8PwQTFVZERT1kT-4" target="jpV_vs8PwQTFVZERT1kT-0" edge="1">
          <mxGeometry relative="1" as="geometry" />
        </mxCell>
        <mxCell id="jpV_vs8PwQTFVZERT1kT-4" value="integrate TurnRate, LookRate with Axis2D" style="rounded=0;whiteSpace=wrap;html=1;" parent="WIyWlLk6GJQsqaUBKTNV-1" vertex="1">
          <mxGeometry x="110" y="-60" width="110" height="60" as="geometry" />
        </mxCell>
        <mxCell id="52t62K6r0B704PcLGxnU-3" style="edgeStyle=orthogonalEdgeStyle;rounded=0;orthogonalLoop=1;jettySize=auto;html=1;" parent="WIyWlLk6GJQsqaUBKTNV-1" source="jpV_vs8PwQTFVZERT1kT-7" target="jpV_vs8PwQTFVZERT1kT-0" edge="1">
          <mxGeometry relative="1" as="geometry" />
        </mxCell>
        <mxCell id="jpV_vs8PwQTFVZERT1kT-7" value="make separate HelathComponent" style="rounded=0;whiteSpace=wrap;html=1;" parent="WIyWlLk6GJQsqaUBKTNV-1" vertex="1">
          <mxGeometry x="330" y="-50" width="110" height="50" as="geometry" />
        </mxCell>
        <mxCell id="52t62K6r0B704PcLGxnU-4" style="edgeStyle=orthogonalEdgeStyle;rounded=0;orthogonalLoop=1;jettySize=auto;html=1;" parent="WIyWlLk6GJQsqaUBKTNV-1" source="jpV_vs8PwQTFVZERT1kT-9" target="jpV_vs8PwQTFVZERT1kT-0" edge="1">
          <mxGeometry relative="1" as="geometry" />
        </mxCell>
        <mxCell id="jpV_vs8PwQTFVZERT1kT-9" value="what is CrosshiarInAirFactor??" style="rounded=0;whiteSpace=wrap;html=1;" parent="WIyWlLk6GJQsqaUBKTNV-1" vertex="1">
          <mxGeometry x="460" y="-87.5" width="140" height="85" as="geometry" />
        </mxCell>
        <mxCell id="52t62K6r0B704PcLGxnU-6" style="edgeStyle=orthogonalEdgeStyle;rounded=0;orthogonalLoop=1;jettySize=auto;html=1;entryX=0.738;entryY=-0.001;entryDx=0;entryDy=0;entryPerimeter=0;" parent="WIyWlLk6GJQsqaUBKTNV-1" source="jpV_vs8PwQTFVZERT1kT-11" target="jpV_vs8PwQTFVZERT1kT-0" edge="1">
          <mxGeometry relative="1" as="geometry" />
        </mxCell>
        <mxCell id="jpV_vs8PwQTFVZERT1kT-11" value="Usage 4 TraceHitItem: AItem*" style="rounded=0;whiteSpace=wrap;html=1;" parent="WIyWlLk6GJQsqaUBKTNV-1" vertex="1">
          <mxGeometry x="630" y="-87.5" width="140" height="85" as="geometry" />
        </mxCell>
        <mxCell id="jpV_vs8PwQTFVZERT1kT-31" value="AShooterPlayerController:APlayerController" style="swimlane;fontStyle=1;align=center;verticalAlign=top;childLayout=stackLayout;horizontal=1;startSize=26;horizontalStack=0;resizeParent=1;resizeParentMax=0;resizeLast=0;collapsible=1;marginBottom=0;whiteSpace=wrap;html=1;" parent="WIyWlLk6GJQsqaUBKTNV-1" vertex="1">
          <mxGeometry x="820" y="90" width="380" height="138" as="geometry">
            <mxRectangle x="820" y="90" width="290" height="30" as="alternateBounds" />
          </mxGeometry>
        </mxCell>
        <mxCell id="jpV_vs8PwQTFVZERT1kT-32" value="-HUDOverlayClass:TSubclassOf&amp;lt;UUserWidget&amp;gt;&lt;br&gt;-HUDOverlay:UUserWidget*&lt;br&gt;" style="text;strokeColor=none;fillColor=none;align=left;verticalAlign=top;spacingLeft=4;spacingRight=4;overflow=hidden;rotatable=0;points=[[0,0.5],[1,0.5]];portConstraint=eastwest;whiteSpace=wrap;html=1;" parent="jpV_vs8PwQTFVZERT1kT-31" vertex="1">
          <mxGeometry y="26" width="380" height="44" as="geometry" />
        </mxCell>
        <mxCell id="jpV_vs8PwQTFVZERT1kT-33" value="" style="line;strokeWidth=1;fillColor=none;align=left;verticalAlign=middle;spacingTop=-1;spacingLeft=3;spacingRight=3;rotatable=0;labelPosition=right;points=[];portConstraint=eastwest;strokeColor=inherit;" parent="jpV_vs8PwQTFVZERT1kT-31" vertex="1">
          <mxGeometry y="70" width="380" height="8" as="geometry" />
        </mxCell>
        <mxCell id="jpV_vs8PwQTFVZERT1kT-34" value="+AShooterPlayerController()&lt;br&gt;&lt;br&gt;#BeginPlay()" style="text;strokeColor=none;fillColor=none;align=left;verticalAlign=top;spacingLeft=4;spacingRight=4;overflow=hidden;rotatable=0;points=[[0,0.5],[1,0.5]];portConstraint=eastwest;whiteSpace=wrap;html=1;" parent="jpV_vs8PwQTFVZERT1kT-31" vertex="1">
          <mxGeometry y="78" width="380" height="60" as="geometry" />
        </mxCell>
        <mxCell id="52t62K6r0B704PcLGxnU-7" style="edgeStyle=orthogonalEdgeStyle;rounded=0;orthogonalLoop=1;jettySize=auto;html=1;" parent="WIyWlLk6GJQsqaUBKTNV-1" source="52t62K6r0B704PcLGxnU-0" target="jpV_vs8PwQTFVZERT1kT-31" edge="1">
          <mxGeometry relative="1" as="geometry" />
        </mxCell>
        <mxCell id="52t62K6r0B704PcLGxnU-0" value="?&lt;br&gt;same UUserWidget&lt;br&gt;1 is using TSubclassOf&lt;br&gt;but&lt;br&gt;UUserWidget*" style="rounded=0;whiteSpace=wrap;html=1;" parent="WIyWlLk6GJQsqaUBKTNV-1" vertex="1">
          <mxGeometry x="820" y="-110" width="120" height="130" as="geometry" />
        </mxCell>
        <mxCell id="52t62K6r0B704PcLGxnU-8" value="ShooterGameModeBase&lt;br&gt;" style="swimlane;fontStyle=1;align=center;verticalAlign=top;childLayout=stackLayout;horizontal=1;startSize=26;horizontalStack=0;resizeParent=1;resizeParentMax=0;resizeLast=0;collapsible=1;marginBottom=0;whiteSpace=wrap;html=1;" parent="WIyWlLk6GJQsqaUBKTNV-1" vertex="1">
          <mxGeometry x="1300" y="90" width="560" height="130" as="geometry" />
        </mxCell>
        <mxCell id="52t62K6r0B704PcLGxnU-10" value="" style="line;strokeWidth=1;fillColor=none;align=left;verticalAlign=middle;spacingTop=-1;spacingLeft=3;spacingRight=3;rotatable=0;labelPosition=right;points=[];portConstraint=eastwest;strokeColor=inherit;" parent="52t62K6r0B704PcLGxnU-8" vertex="1">
          <mxGeometry y="26" width="560" height="104" as="geometry" />
        </mxCell>
        <mxCell id="52t62K6r0B704PcLGxnU-17" value="Weapon" style="swimlane;fontStyle=1;align=center;verticalAlign=top;childLayout=stackLayout;horizontal=1;startSize=26;horizontalStack=0;resizeParent=1;resizeParentMax=0;resizeLast=0;collapsible=1;marginBottom=0;whiteSpace=wrap;html=1;" parent="WIyWlLk6GJQsqaUBKTNV-1" vertex="1">
          <mxGeometry x="110" y="-1420" width="510" height="1008" as="geometry" />
        </mxCell>
        <mxCell id="52t62K6r0B704PcLGxnU-18" value="-ThrowWeaponTimer:FTimerHandle&lt;br&gt;-ThrowWeaponTime:float&lt;br&gt;-bFalling:bool&lt;br&gt;&lt;br&gt;-Ammo:int32&lt;br&gt;-MagazineCapacity:int32&lt;br&gt;-WeaponType:EWeaponType&lt;br&gt;-AmmoType:EAmmoType&lt;br&gt;-ReloadMontageSection:FName&lt;br&gt;-bMovingClip:bool&lt;br&gt;-ClipBoneName:FName&lt;br&gt;-WeaponDataTable:UDataTable*&lt;br&gt;-PreviousMaterialIndex:int32&lt;br&gt;-CrosshairsMiddle:UTExture2D*&lt;br&gt;..left&lt;br&gt;..Right&lt;br&gt;..bottom&lt;br&gt;..Top&lt;br&gt;-AutoFireRate:float&lt;br&gt;-MuzzleFlash:UParticleSystem*&lt;br&gt;-FireSound:USoundCue*&lt;br&gt;-BoneToHide:FName&lt;br&gt;-SlideDisplacement:float&lt;br&gt;-SlideDisplacementCurve:UCurveFloat*&lt;br&gt;-SlideTimer:FTimerHandle // Timer handle for update SlideDisplacement&lt;br&gt;-SlideDispacementTimer:float // Time for displaceing the slide during pistol fire&lt;br&gt;-bMovingslide:bool&lt;br&gt;-MaxSlideDisplacement:float&lt;br&gt;-MaxRecoilRotation:float&lt;br&gt;-RecoilRotation:float&lt;br&gt;-bAutomatic:bool&lt;br&gt;-Damage:float&lt;br&gt;-HeadShotDamage:float" style="text;strokeColor=none;fillColor=none;align=left;verticalAlign=top;spacingLeft=4;spacingRight=4;overflow=hidden;rotatable=0;points=[[0,0.5],[1,0.5]];portConstraint=eastwest;whiteSpace=wrap;html=1;" parent="52t62K6r0B704PcLGxnU-17" vertex="1">
          <mxGeometry y="26" width="510" height="494" as="geometry" />
        </mxCell>
        <mxCell id="52t62K6r0B704PcLGxnU-19" value="" style="line;strokeWidth=1;fillColor=none;align=left;verticalAlign=middle;spacingTop=-1;spacingLeft=3;spacingRight=3;rotatable=0;labelPosition=right;points=[];portConstraint=eastwest;strokeColor=inherit;" parent="52t62K6r0B704PcLGxnU-17" vertex="1">
          <mxGeometry y="520" width="510" height="8" as="geometry" />
        </mxCell>
        <mxCell id="52t62K6r0B704PcLGxnU-20" value="+AWeapon()&lt;br&gt;&lt;br&gt;#StopFalling():void&lt;br&gt;#OnConstruction(Transform:FTransform&amp;amp;):void&lt;br&gt;#BeginPlay():void&lt;br&gt;#FinishMovingSlide():void&lt;br&gt;#updateSlideDispaccement():void&lt;br&gt;&lt;br&gt;+ThrowWeapon():void //Adds an impulseto the Weapon&lt;br&gt;+GetAmmo():int32&lt;br&gt;GetMagazineCapacity():int32&lt;br&gt;&lt;br&gt;+DecrementAmmo():void //Called from Character class when firing Weapon&lt;br&gt;&lt;br&gt;+GetWeaponType():EWeaponType&lt;br&gt;+GetAmmoType():EAmmoType&lt;br&gt;+GetReloadMontageSection():FName&lt;br&gt;+SetReloadMontageSection(Name:FName):void&lt;br&gt;+GetClipBoneName():FName&lt;br&gt;+SetClipBoneName:void&lt;br&gt;+GetAutoFireRate():float&lt;br&gt;+GetMuzzleFlash():UParticleSystem*&lt;br&gt;+GetFireSound():USoundCue*&lt;br&gt;+GetAutomatic():bool&lt;br&gt;+GetDamage():float&lt;br&gt;+GetHeadShotDamage():float&lt;br&gt;&lt;br&gt;+StartSlideTimer():void&lt;br&gt;+ReloadAmmo(Amount):void&lt;br&gt;+SetMovingclip(Move:bool):void&lt;br&gt;+ClipIsFull():bool" style="text;strokeColor=none;fillColor=none;align=left;verticalAlign=top;spacingLeft=4;spacingRight=4;overflow=hidden;rotatable=0;points=[[0,0.5],[1,0.5]];portConstraint=eastwest;whiteSpace=wrap;html=1;rounded=1;" parent="52t62K6r0B704PcLGxnU-17" vertex="1">
          <mxGeometry y="528" width="510" height="480" as="geometry" />
        </mxCell>
        <mxCell id="52t62K6r0B704PcLGxnU-21" value="struct FWeaponDataTable: FTableRowBase" style="swimlane;fontStyle=0;childLayout=stackLayout;horizontal=1;startSize=30;fillColor=none;horizontalStack=0;resizeParent=1;resizeParentMax=0;resizeLast=0;collapsible=1;marginBottom=0;whiteSpace=wrap;html=1;" parent="WIyWlLk6GJQsqaUBKTNV-1" vertex="1">
          <mxGeometry x="63" y="-1920" width="350" height="420" as="geometry" />
        </mxCell>
        <mxCell id="52t62K6r0B704PcLGxnU-29" value="-AmmoType:EAmmoType&lt;br style=&quot;border-color: var(--border-color);&quot;&gt;&lt;span style=&quot;&quot;&gt;-WeaponAmmo:int32&lt;/span&gt;&lt;br style=&quot;border-color: var(--border-color);&quot;&gt;&lt;span style=&quot;&quot;&gt;-MagazingCapacity:int32&lt;/span&gt;&lt;br style=&quot;border-color: var(--border-color);&quot;&gt;&lt;span style=&quot;&quot;&gt;-PickupSound:UsoundCue*&lt;/span&gt;&lt;br style=&quot;border-color: var(--border-color);&quot;&gt;&lt;span style=&quot;&quot;&gt;-EquipSound:USoundCue*&lt;/span&gt;&lt;br style=&quot;border-color: var(--border-color);&quot;&gt;&lt;span style=&quot;&quot;&gt;-ItemMesh:USkeletalMesh*&lt;/span&gt;&lt;br style=&quot;border-color: var(--border-color);&quot;&gt;&lt;span style=&quot;&quot;&gt;-ItemName:FString&lt;/span&gt;&lt;br style=&quot;border-color: var(--border-color);&quot;&gt;&lt;span style=&quot;&quot;&gt;-InventoryIcon:UTexture2D*&lt;/span&gt;&lt;br style=&quot;border-color: var(--border-color);&quot;&gt;&lt;span style=&quot;&quot;&gt;-AmmoIcon:UTexture2D*&lt;/span&gt;&lt;br style=&quot;border-color: var(--border-color);&quot;&gt;&lt;span style=&quot;&quot;&gt;-MaterialInstance:UMaterialInstance*&lt;/span&gt;&lt;br style=&quot;border-color: var(--border-color);&quot;&gt;&lt;span style=&quot;&quot;&gt;-MaterialIndex:int32&lt;/span&gt;&lt;br style=&quot;border-color: var(--border-color);&quot;&gt;&lt;span style=&quot;&quot;&gt;-ClipBoneName:FName&lt;/span&gt;&lt;br style=&quot;border-color: var(--border-color);&quot;&gt;&lt;span style=&quot;&quot;&gt;-ReloadMontageSection:FName&lt;/span&gt;&lt;br style=&quot;border-color: var(--border-color);&quot;&gt;&lt;span style=&quot;&quot;&gt;-AnimBP:TSubclassOf&amp;lt;UAnimInstance&amp;gt;&lt;/span&gt;&lt;br style=&quot;border-color: var(--border-color);&quot;&gt;&lt;span style=&quot;&quot;&gt;-CrosshairsMiddle:UTexture2D*&lt;/span&gt;&lt;br style=&quot;border-color: var(--border-color);&quot;&gt;&lt;span style=&quot;&quot;&gt;-CrosshairLeft:UTexture2D*&lt;/span&gt;&lt;br style=&quot;border-color: var(--border-color);&quot;&gt;&lt;span style=&quot;&quot;&gt;-CrosshairsRight:UTexture2D*&lt;/span&gt;&lt;br style=&quot;border-color: var(--border-color);&quot;&gt;&lt;span style=&quot;&quot;&gt;..Bottom&lt;/span&gt;&lt;br style=&quot;border-color: var(--border-color);&quot;&gt;&lt;span style=&quot;&quot;&gt;..Top&lt;/span&gt;&lt;br style=&quot;border-color: var(--border-color);&quot;&gt;&lt;span style=&quot;&quot;&gt;-AutoFireRate:float&lt;/span&gt;&lt;br style=&quot;border-color: var(--border-color);&quot;&gt;&lt;span style=&quot;&quot;&gt;-Muzzleflash:UParticleSystem*&lt;/span&gt;&lt;br style=&quot;border-color: var(--border-color);&quot;&gt;&lt;span style=&quot;&quot;&gt;-FireSound:USoundCue*&lt;/span&gt;&lt;br style=&quot;border-color: var(--border-color);&quot;&gt;&lt;span style=&quot;&quot;&gt;-BoneToHide:FName&lt;/span&gt;&lt;br style=&quot;border-color: var(--border-color);&quot;&gt;&lt;span style=&quot;&quot;&gt;-bAutomatic:bool&lt;/span&gt;&lt;br style=&quot;border-color: var(--border-color);&quot;&gt;&lt;span style=&quot;&quot;&gt;-Damage:float&lt;/span&gt;&lt;br style=&quot;border-color: var(--border-color);&quot;&gt;&lt;span style=&quot;&quot;&gt;-HeadShotDamage:float&lt;/span&gt;" style="text;html=1;align=left;verticalAlign=middle;resizable=0;points=[];autosize=1;strokeColor=none;fillColor=none;" parent="52t62K6r0B704PcLGxnU-21" vertex="1">
          <mxGeometry y="30" width="350" height="390" as="geometry" />
        </mxCell>
        <mxCell id="52t62K6r0B704PcLGxnU-31" style="edgeStyle=orthogonalEdgeStyle;rounded=0;orthogonalLoop=1;jettySize=auto;html=1;entryX=-0.005;entryY=0.033;entryDx=0;entryDy=0;entryPerimeter=0;" parent="WIyWlLk6GJQsqaUBKTNV-1" source="52t62K6r0B704PcLGxnU-29" target="52t62K6r0B704PcLGxnU-18" edge="1">
          <mxGeometry relative="1" as="geometry" />
        </mxCell>
        <mxCell id="52t62K6r0B704PcLGxnU-36" style="edgeStyle=orthogonalEdgeStyle;rounded=0;orthogonalLoop=1;jettySize=auto;html=1;entryX=0.997;entryY=0.042;entryDx=0;entryDy=0;entryPerimeter=0;" parent="WIyWlLk6GJQsqaUBKTNV-1" source="52t62K6r0B704PcLGxnU-32" target="52t62K6r0B704PcLGxnU-18" edge="1">
          <mxGeometry relative="1" as="geometry" />
        </mxCell>
        <mxCell id="52t62K6r0B704PcLGxnU-32" value="WeaponType : enum class : uint8" style="swimlane;fontStyle=0;childLayout=stackLayout;horizontal=1;startSize=26;fillColor=none;horizontalStack=0;resizeParent=1;resizeParentMax=0;resizeLast=0;collapsible=1;marginBottom=0;whiteSpace=wrap;html=1;" parent="WIyWlLk6GJQsqaUBKTNV-1" vertex="1">
          <mxGeometry x="490" y="-1920" width="370" height="110" as="geometry" />
        </mxCell>
        <mxCell id="52t62K6r0B704PcLGxnU-33" value="EWT_SubmachineGun UMETA(DisplayName = &quot;SubmachineGun&quot;&lt;br&gt;EWT_AssaultRifle UMETA(DisplayName = &quot;AssaultRifle&quot;&lt;br&gt;EWT_Pistol UMETA(DisplayName = &quot;Pistol&quot;&lt;br&gt;&lt;br&gt;EWT_MAX UMETA(DisplayName = &quot;DefaultMAX&quot;" style="text;strokeColor=none;fillColor=none;align=left;verticalAlign=top;spacingLeft=4;spacingRight=4;overflow=hidden;rotatable=0;points=[[0,0.5],[1,0.5]];portConstraint=eastwest;whiteSpace=wrap;html=1;" parent="52t62K6r0B704PcLGxnU-32" vertex="1">
          <mxGeometry y="26" width="370" height="84" as="geometry" />
        </mxCell>
        <mxCell id="52t62K6r0B704PcLGxnU-37" value="Classname" style="swimlane;fontStyle=1;align=center;verticalAlign=top;childLayout=stackLayout;horizontal=1;startSize=26;horizontalStack=0;resizeParent=1;resizeParentMax=0;resizeLast=0;collapsible=1;marginBottom=0;whiteSpace=wrap;html=1;" parent="WIyWlLk6GJQsqaUBKTNV-1" vertex="1">
          <mxGeometry x="100" y="2878" width="160" height="86" as="geometry" />
        </mxCell>
        <mxCell id="52t62K6r0B704PcLGxnU-38" value="+ field: type" style="text;strokeColor=none;fillColor=none;align=left;verticalAlign=top;spacingLeft=4;spacingRight=4;overflow=hidden;rotatable=0;points=[[0,0.5],[1,0.5]];portConstraint=eastwest;whiteSpace=wrap;html=1;" parent="52t62K6r0B704PcLGxnU-37" vertex="1">
          <mxGeometry y="26" width="160" height="26" as="geometry" />
        </mxCell>
        <mxCell id="52t62K6r0B704PcLGxnU-39" value="" style="line;strokeWidth=1;fillColor=none;align=left;verticalAlign=middle;spacingTop=-1;spacingLeft=3;spacingRight=3;rotatable=0;labelPosition=right;points=[];portConstraint=eastwest;strokeColor=inherit;" parent="52t62K6r0B704PcLGxnU-37" vertex="1">
          <mxGeometry y="52" width="160" height="8" as="geometry" />
        </mxCell>
        <mxCell id="52t62K6r0B704PcLGxnU-40" value="+ method(type): type" style="text;strokeColor=none;fillColor=none;align=left;verticalAlign=top;spacingLeft=4;spacingRight=4;overflow=hidden;rotatable=0;points=[[0,0.5],[1,0.5]];portConstraint=eastwest;whiteSpace=wrap;html=1;" parent="52t62K6r0B704PcLGxnU-37" vertex="1">
          <mxGeometry y="60" width="160" height="26" as="geometry" />
        </mxCell>
        <mxCell id="HmlJ2-SFebytM_LcwH4q-0" value="ShooterAnimInstance: UAnimInstance" style="swimlane;fontStyle=1;align=center;verticalAlign=top;childLayout=stackLayout;horizontal=1;startSize=26;horizontalStack=0;resizeParent=1;resizeParentMax=0;resizeLast=0;collapsible=1;marginBottom=0;whiteSpace=wrap;html=1;" parent="WIyWlLk6GJQsqaUBKTNV-1" vertex="1">
          <mxGeometry x="-910" y="90" width="380" height="548" as="geometry" />
        </mxCell>
        <mxCell id="HmlJ2-SFebytM_LcwH4q-1" value="-ShooterCharacter: AShooterCharacter*&lt;br&gt;-Speed: float&lt;br&gt;-bIsInAir: bool&lt;br&gt;-bIsAccelerating: bool&lt;br&gt;-MovementOffsetYaw: float&lt;br&gt;-LastMovementOffsetYaw: float&lt;br&gt;-bAiminh: bool&lt;br&gt;-TIPCharacterYaw: float&lt;br&gt;-RootYawOffset: float&lt;br&gt;-RotationCurve: float&lt;br&gt;-RotationCurveLastFrame: float&lt;br&gt;-Pitch: float&lt;br&gt;-bReloading: bool&lt;br&gt;-OffsetState: EOffsetState&lt;br&gt;-CharacterRotation: FRotator&lt;br&gt;-CharacterRotationLastFrame: FRotator&lt;br&gt;-YawDelta: float&lt;br&gt;-bCrouching: bool&lt;br&gt;-bEquipping: bool&lt;br&gt;-RecioilWeight: float&lt;br&gt;-bTurningInPlace: bool&lt;br&gt;-EquippedWeaponType: EWeaponType&lt;br&gt;-bShouldUseFABRIK: bool // True when not reloading or equipping" style="text;strokeColor=none;fillColor=none;align=left;verticalAlign=top;spacingLeft=4;spacingRight=4;overflow=hidden;rotatable=0;points=[[0,0.5],[1,0.5]];portConstraint=eastwest;whiteSpace=wrap;html=1;" parent="HmlJ2-SFebytM_LcwH4q-0" vertex="1">
          <mxGeometry y="26" width="380" height="414" as="geometry" />
        </mxCell>
        <mxCell id="HmlJ2-SFebytM_LcwH4q-2" value="" style="line;strokeWidth=1;fillColor=none;align=left;verticalAlign=middle;spacingTop=-1;spacingLeft=3;spacingRight=3;rotatable=0;labelPosition=right;points=[];portConstraint=eastwest;strokeColor=inherit;" parent="HmlJ2-SFebytM_LcwH4q-0" vertex="1">
          <mxGeometry y="440" width="380" height="8" as="geometry" />
        </mxCell>
        <mxCell id="HmlJ2-SFebytM_LcwH4q-3" value="+UShooterAnimInstance()&lt;br&gt;+UpdateAnimationProperties(DeltaTime: float): void&lt;br&gt;+NativeInitializeAnimation(): void&lt;br&gt;&lt;br&gt;#TurnInPlace(): void&lt;br&gt;#Lean(DeltaTime: float): void" style="text;strokeColor=none;fillColor=none;align=left;verticalAlign=top;spacingLeft=4;spacingRight=4;overflow=hidden;rotatable=0;points=[[0,0.5],[1,0.5]];portConstraint=eastwest;whiteSpace=wrap;html=1;" parent="HmlJ2-SFebytM_LcwH4q-0" vertex="1">
          <mxGeometry y="448" width="380" height="100" as="geometry" />
        </mxCell>
        <mxCell id="HmlJ2-SFebytM_LcwH4q-8" style="edgeStyle=orthogonalEdgeStyle;rounded=0;orthogonalLoop=1;jettySize=auto;html=1;entryX=0;entryY=0.5;entryDx=0;entryDy=0;" parent="WIyWlLk6GJQsqaUBKTNV-1" source="HmlJ2-SFebytM_LcwH4q-4" target="HmlJ2-SFebytM_LcwH4q-1" edge="1">
          <mxGeometry relative="1" as="geometry" />
        </mxCell>
        <mxCell id="HmlJ2-SFebytM_LcwH4q-4" value="EOffsetState: enum class: uint8" style="swimlane;fontStyle=0;childLayout=stackLayout;horizontal=1;startSize=26;fillColor=none;horizontalStack=0;resizeParent=1;resizeParentMax=0;resizeLast=0;collapsible=1;marginBottom=0;whiteSpace=wrap;html=1;" parent="WIyWlLk6GJQsqaUBKTNV-1" vertex="1">
          <mxGeometry x="-910" y="-200" width="290" height="130" as="geometry" />
        </mxCell>
        <mxCell id="HmlJ2-SFebytM_LcwH4q-5" value="EOS_Aiming UMETA(DisplayName=&quot;Aiming&quot;)&lt;br&gt;EOS_Hip UMETA(DisplayName=&quot;Hip&quot;)&lt;br&gt;EOS_Reloading UMETA(DisplayName=&quot;Reloading&quot;)&lt;br&gt;EOS_InAir UMETA(DisplayName=&quot;InAir&quot;)&lt;br&gt;&lt;br&gt;EOS_MAX UMETA(DisplayName=&quot;DefaultMAX&quot;)" style="text;strokeColor=none;fillColor=none;align=left;verticalAlign=top;spacingLeft=4;spacingRight=4;overflow=hidden;rotatable=0;points=[[0,0.5],[1,0.5]];portConstraint=eastwest;whiteSpace=wrap;html=1;" parent="HmlJ2-SFebytM_LcwH4q-4" vertex="1">
          <mxGeometry y="26" width="290" height="104" as="geometry" />
        </mxCell>
        <mxCell id="FjF-tRFpFTwW2lLbXwbJ-1" value="AItem" style="swimlane;fontStyle=1;align=center;verticalAlign=top;childLayout=stackLayout;horizontal=1;startSize=26;horizontalStack=0;resizeParent=1;resizeParentMax=0;resizeLast=0;collapsible=1;marginBottom=0;whiteSpace=wrap;html=1;" vertex="1" parent="WIyWlLk6GJQsqaUBKTNV-1">
          <mxGeometry x="40" y="-3650" width="550" height="1668" as="geometry" />
        </mxCell>
        <mxCell id="FjF-tRFpFTwW2lLbXwbJ-2" value="-ItemMesh: USkeletalMeshComponent*&lt;br&gt;-CollisionBox: UBoxComponent*&lt;br&gt;-PickupWidget: UWidgetComponent*&lt;br&gt;-AreaSphere: USphereComponent*&lt;br&gt;-ItemName: FString&lt;br&gt;-ItemCount: int32&lt;br&gt;-ItemRarity: ETiemRarity&lt;br&gt;-ActiveStars: TArray&amp;lt;bool&amp;gt;&lt;br&gt;-ItemState: EItemState&lt;br&gt;-ItemZCurve: UCurveFloat* //curve asset to use for the item&#39;s Z location when interping&lt;br&gt;&lt;br&gt;-ItemInterpStartLocation: FVector&lt;br&gt;-CameraTargetLocation: FVector&lt;br&gt;-bInterping: bool&lt;br&gt;&lt;br&gt;-ItemInterpTimer: FTimerHandle&lt;br&gt;-ZCurveTime: float&lt;br&gt;&lt;br&gt;-Character: AShooterCharacter*&lt;br&gt;&lt;br&gt;-ItemInterpX: float&lt;br&gt;-ItemInterpY: float&lt;br&gt;&lt;br&gt;-InterpInitialYawOffset: float&lt;br&gt;-ItemScaleCurve: UCurveFloat*&lt;br&gt;-PickupSound: USoundCue*&lt;br&gt;-EquipSound: USoundCue*&lt;br&gt;-ItemType: EItemType&lt;br&gt;-InterpLocIndex: int32&lt;br&gt;-MaterialIndex: int32&lt;br&gt;-DynamicMaterialInstance: UMaterialInstanceDynamic*&lt;br&gt;-MaterialInstance: UMaterialInstance*&lt;br&gt;-bCanChangeCustomDepth: bool&lt;br&gt;-PulseCurve: UCurveVector*&lt;br&gt;-InterpPulseCurve: UCurveVector*&lt;br&gt;-PulseTimer: FTimerHandle&lt;br&gt;-PulseCurveTime: float&lt;br&gt;-FlowAmount: float&lt;br&gt;-FresnelExponent: float&lt;br&gt;-FresnelReflectFraction: float&lt;br&gt;-IconItem: UTexture2D*&lt;br&gt;-AmmoItem: UTexture2D*&lt;br&gt;-SlotIndex: int32&lt;br&gt;-bCharacterInventoryFull: bool&lt;br&gt;-ItemRarityDataTable: UDataTable*&lt;br&gt;-GlowColor: FLinearColor&lt;br&gt;-LightColor: FLinearColor&lt;br&gt;-DarkColor: FLinearColor&lt;br&gt;-NumberOfStars: int32&lt;br&gt;-IconBackground: UTexture2D*" style="text;strokeColor=none;fillColor=none;align=left;verticalAlign=top;spacingLeft=4;spacingRight=4;overflow=hidden;rotatable=0;points=[[0,0.5],[1,0.5]];portConstraint=eastwest;whiteSpace=wrap;html=1;" vertex="1" parent="FjF-tRFpFTwW2lLbXwbJ-1">
          <mxGeometry y="26" width="550" height="744" as="geometry" />
        </mxCell>
        <mxCell id="FjF-tRFpFTwW2lLbXwbJ-3" value="" style="line;strokeWidth=1;fillColor=none;align=left;verticalAlign=middle;spacingTop=-1;spacingLeft=3;spacingRight=3;rotatable=0;labelPosition=right;points=[];portConstraint=eastwest;strokeColor=inherit;" vertex="1" parent="FjF-tRFpFTwW2lLbXwbJ-1">
          <mxGeometry y="770" width="550" height="8" as="geometry" />
        </mxCell>
        <mxCell id="FjF-tRFpFTwW2lLbXwbJ-4" value="+AItem()&lt;br&gt;#BeginPlay()&lt;br&gt;#OnSphereOverlap(&lt;br&gt;&lt;span style=&quot;white-space: pre;&quot;&gt;&#x9;&lt;/span&gt;OverlappedComponent: UPrimitiveComponent*, &lt;br&gt;&lt;span style=&quot;white-space: pre;&quot;&gt;&#x9;&lt;/span&gt;OtherActor: AActor*,&lt;br&gt;&lt;span style=&quot;white-space: pre;&quot;&gt;&#x9;&lt;/span&gt;OtherComp: UPrimitiveComponent*&lt;br&gt;&lt;span style=&quot;white-space: pre;&quot;&gt;&#x9;&lt;/span&gt;OtherBodyIndex: int32&lt;br&gt;&lt;span style=&quot;white-space: pre;&quot;&gt;&#x9;&lt;/span&gt;bFromSweep: bool&lt;br&gt;&lt;span style=&quot;white-space: pre;&quot;&gt;&#x9;&lt;/span&gt;SweepResult: FHitResult&amp;amp;)&lt;br&gt;#OnSphereEndOverlap(&lt;br&gt;&lt;span style=&quot;white-space: pre;&quot;&gt;&#x9;&lt;/span&gt;OverlappedComponent: UPrimitiveComponent*,&lt;br&gt;&lt;span style=&quot;white-space: pre;&quot;&gt;&#x9;&lt;/span&gt;OtherActor: AActor*,&lt;br&gt;&lt;span style=&quot;white-space: pre;&quot;&gt;&#x9;&lt;/span&gt;OtherComp: UPrimitiveComponent,&lt;br&gt;&lt;span style=&quot;white-space: pre;&quot;&gt;&#x9;&lt;/span&gt;OtherBodyIndex: int32)&lt;br&gt;#SetActiveStars(): void&lt;br&gt;#SetItemProperties(State: EItemState): void&lt;br&gt;#FinishInterping(): void&lt;br&gt;#ItemInterp(DeltaTime: float)&lt;br&gt;#GetInterpLocation(): FVector&lt;br&gt;#PlayPickupSound(bForcePlaySound: bool)&lt;br&gt;#InitializeCustomDepth: void&lt;br&gt;#OnConstruction(Transfrom: FTransform&amp;amp;)&lt;br&gt;EnableGlowMaterial(): void&lt;br&gt;UpdatePulse(): void&lt;br&gt;ResetPulseTimer(): void&lt;br&gt;StartPulseTimer(): void&lt;br&gt;&lt;br&gt;+Tick(DeltaTime: float)&lt;br&gt;+PlayEquipSound(bForcePlaySound: bool)&lt;br&gt;&lt;br&gt;//FORCEINLINE GET/SET&lt;br&gt;+GetPickupWidget()&lt;br&gt;+GetAreaSphere()&lt;br&gt;+GetCollisionBox()&lt;br&gt;+GetItemState()&lt;br&gt;+Set.()&lt;br&gt;+GetItemMesh()&lt;br&gt;+GetPickupSound()&lt;br&gt;+Set.()&lt;br&gt;+GetEquipSound()&lt;br&gt;+Set.&lt;br&gt;+GetItemCound()&lt;br&gt;+GetSlotIndex()&lt;br&gt;+Set.&lt;br&gt;+SetCharacter(Char: AShooterCharacter*)&lt;br&gt;+SetCharacterInentoryFull(bFull: bool)&lt;br&gt;+SetItemName(Name: FString)&lt;br&gt;+SetIconItem(Icon: UTexture2D*)&lt;br&gt;+SetAmmoIcon(Icon: UTexture2D*)&lt;br&gt;+GetMaterialInstance()&lt;br&gt;+Set.&lt;br&gt;+GetDynamicMaterialInstance()&lt;br&gt;+GetGlowGolor()&lt;br&gt;+GetMaterialIndex()&lt;br&gt;+Set.&lt;br&gt;&lt;br&gt;+StartItemCurve(Char: AShooterCharacter*, bForcePlaySound: bool)&lt;br&gt;&lt;br&gt;+EnableCustomDepth(): void&lt;br&gt;+DisableCustomDepth(): void&lt;br&gt;+DisableGlowMaterial(): void" style="text;strokeColor=none;fillColor=none;align=left;verticalAlign=top;spacingLeft=4;spacingRight=4;overflow=hidden;rotatable=0;points=[[0,0.5],[1,0.5]];portConstraint=eastwest;whiteSpace=wrap;html=1;" vertex="1" parent="FjF-tRFpFTwW2lLbXwbJ-1">
          <mxGeometry y="778" width="550" height="890" as="geometry" />
        </mxCell>
        <mxCell id="FjF-tRFpFTwW2lLbXwbJ-5" style="edgeStyle=orthogonalEdgeStyle;rounded=0;orthogonalLoop=1;jettySize=auto;html=1;entryX=1.002;entryY=0.058;entryDx=0;entryDy=0;entryPerimeter=0;" edge="1" parent="WIyWlLk6GJQsqaUBKTNV-1" source="FjF-tRFpFTwW2lLbXwbJ-6">
          <mxGeometry relative="1" as="geometry">
            <mxPoint x="591" y="-3481" as="targetPoint" />
          </mxGeometry>
        </mxCell>
        <mxCell id="FjF-tRFpFTwW2lLbXwbJ-6" value="EItemRarity: enum class: uint8" style="swimlane;fontStyle=0;childLayout=stackLayout;horizontal=1;startSize=26;fillColor=none;horizontalStack=0;resizeParent=1;resizeParentMax=0;resizeLast=0;collapsible=1;marginBottom=0;whiteSpace=wrap;html=1;" vertex="1" parent="WIyWlLk6GJQsqaUBKTNV-1">
          <mxGeometry x="710" y="-3560" width="340" height="140" as="geometry" />
        </mxCell>
        <mxCell id="FjF-tRFpFTwW2lLbXwbJ-7" value="EIR_Damaged UMETA(DisplayName=&quot;Damaged&quot;)&lt;br&gt;EIR_Common UMETA(DisplayName=&quot;Common&quot;)&lt;br&gt;EIR_Uncommon UMETA(DisplayName=&quot;Uncommon&quot;)&lt;br&gt;EIR_Rare UMETA(DisplayName=&quot;Rare&quot;)&lt;br&gt;EIR_Legendary UMETA(DisplayName=&quot;Legendary&quot;)&lt;br&gt;&lt;br&gt;EIR_MAX UMETA(Displayname=&quot;DefaultMAX&quot;)" style="text;strokeColor=none;fillColor=none;align=left;verticalAlign=top;spacingLeft=4;spacingRight=4;overflow=hidden;rotatable=0;points=[[0,0.5],[1,0.5]];portConstraint=eastwest;whiteSpace=wrap;html=1;" vertex="1" parent="FjF-tRFpFTwW2lLbXwbJ-6">
          <mxGeometry y="26" width="340" height="114" as="geometry" />
        </mxCell>
        <mxCell id="FjF-tRFpFTwW2lLbXwbJ-8" value="EItemState: enum class: uint8" style="swimlane;fontStyle=0;childLayout=stackLayout;horizontal=1;startSize=26;fillColor=none;horizontalStack=0;resizeParent=1;resizeParentMax=0;resizeLast=0;collapsible=1;marginBottom=0;whiteSpace=wrap;html=1;" vertex="1" parent="WIyWlLk6GJQsqaUBKTNV-1">
          <mxGeometry x="710" y="-3370" width="340" height="140" as="geometry" />
        </mxCell>
        <mxCell id="FjF-tRFpFTwW2lLbXwbJ-9" value="EIS_Pickup UMETA(DisplayName=&quot;Pickup&quot;)&lt;br&gt;EIS_EquipInterping UMETA(DisplayName=&quot;EquipInterping&quot;)&lt;br&gt;EIS_PickedUp UMETA(DisplayName=&quot;PickedUp&quot;)&lt;br&gt;EIS_Equipped UMETA(DisplayName=&quot;Equipped&quot;)&lt;br&gt;EIS_Falling UMETA(DisplayName=&quot;Falling&quot;)&lt;br&gt;&lt;br&gt;EIS_MAX UMETA(DisplayName=&quot;DefaultMAX&quot;)" style="text;strokeColor=none;fillColor=none;align=left;verticalAlign=top;spacingLeft=4;spacingRight=4;overflow=hidden;rotatable=0;points=[[0,0.5],[1,0.5]];portConstraint=eastwest;whiteSpace=wrap;html=1;" vertex="1" parent="FjF-tRFpFTwW2lLbXwbJ-8">
          <mxGeometry y="26" width="340" height="114" as="geometry" />
        </mxCell>
        <mxCell id="FjF-tRFpFTwW2lLbXwbJ-10" style="edgeStyle=orthogonalEdgeStyle;rounded=0;orthogonalLoop=1;jettySize=auto;html=1;" edge="1" parent="WIyWlLk6GJQsqaUBKTNV-1" source="FjF-tRFpFTwW2lLbXwbJ-11">
          <mxGeometry relative="1" as="geometry">
            <mxPoint x="590" y="-3152" as="targetPoint" />
          </mxGeometry>
        </mxCell>
        <mxCell id="FjF-tRFpFTwW2lLbXwbJ-11" value="EItemType: enum class: uint8" style="swimlane;fontStyle=0;childLayout=stackLayout;horizontal=1;startSize=26;fillColor=none;horizontalStack=0;resizeParent=1;resizeParentMax=0;resizeLast=0;collapsible=1;marginBottom=0;whiteSpace=wrap;html=1;" vertex="1" parent="WIyWlLk6GJQsqaUBKTNV-1">
          <mxGeometry x="710" y="-3200" width="340" height="120" as="geometry">
            <mxRectangle x="710" y="-3680" width="200" height="30" as="alternateBounds" />
          </mxGeometry>
        </mxCell>
        <mxCell id="FjF-tRFpFTwW2lLbXwbJ-12" value="EIT_Ammo UMETA(displayname=&quot;Ammo&quot;)&lt;br&gt;EIT_Weapon UMETA(DisplayName=&quot;Weapon&quot;)&lt;br&gt;&lt;br&gt;EIT_MAX UMETA(DisplayName=&quot;DefaultMAX&quot;)" style="text;strokeColor=none;fillColor=none;align=left;verticalAlign=top;spacingLeft=4;spacingRight=4;overflow=hidden;rotatable=0;points=[[0,0.5],[1,0.5]];portConstraint=eastwest;whiteSpace=wrap;html=1;" vertex="1" parent="FjF-tRFpFTwW2lLbXwbJ-11">
          <mxGeometry y="26" width="340" height="94" as="geometry" />
        </mxCell>
        <mxCell id="FjF-tRFpFTwW2lLbXwbJ-13" style="edgeStyle=orthogonalEdgeStyle;rounded=0;orthogonalLoop=1;jettySize=auto;html=1;entryX=0.998;entryY=0.757;entryDx=0;entryDy=0;entryPerimeter=0;" edge="1" parent="WIyWlLk6GJQsqaUBKTNV-1" source="FjF-tRFpFTwW2lLbXwbJ-14">
          <mxGeometry relative="1" as="geometry">
            <mxPoint x="589" y="-2961" as="targetPoint" />
          </mxGeometry>
        </mxCell>
        <mxCell id="FjF-tRFpFTwW2lLbXwbJ-14" value="EItemRarityTable: FTableRowBase" style="swimlane;fontStyle=0;childLayout=stackLayout;horizontal=1;startSize=26;fillColor=none;horizontalStack=0;resizeParent=1;resizeParentMax=0;resizeLast=0;collapsible=1;marginBottom=0;whiteSpace=wrap;html=1;" vertex="1" parent="WIyWlLk6GJQsqaUBKTNV-1">
          <mxGeometry x="710" y="-3020" width="340" height="120" as="geometry" />
        </mxCell>
        <mxCell id="FjF-tRFpFTwW2lLbXwbJ-15" value="GlowColor: FLinearColor&lt;br&gt;LightColor: FLinearColor&lt;br&gt;Darkcolor: FLinearColor&lt;br&gt;NumberOfStars: int32&lt;br&gt;IconBackground: UTexture2D*&lt;br&gt;CustomDepthStencil: int32" style="text;strokeColor=none;fillColor=none;align=left;verticalAlign=top;spacingLeft=4;spacingRight=4;overflow=hidden;rotatable=0;points=[[0,0.5],[1,0.5]];portConstraint=eastwest;whiteSpace=wrap;html=1;" vertex="1" parent="FjF-tRFpFTwW2lLbXwbJ-14">
          <mxGeometry y="26" width="340" height="94" as="geometry" />
        </mxCell>
        <mxCell id="FjF-tRFpFTwW2lLbXwbJ-16" style="edgeStyle=orthogonalEdgeStyle;rounded=0;orthogonalLoop=1;jettySize=auto;html=1;entryX=1.004;entryY=0.319;entryDx=0;entryDy=0;entryPerimeter=0;" edge="1" parent="WIyWlLk6GJQsqaUBKTNV-1" source="FjF-tRFpFTwW2lLbXwbJ-9">
          <mxGeometry relative="1" as="geometry">
            <mxPoint x="592" y="-3287" as="targetPoint" />
          </mxGeometry>
        </mxCell>
        <mxCell id="FjF-tRFpFTwW2lLbXwbJ-17" value="AAmmo: AItem" style="swimlane;fontStyle=1;align=center;verticalAlign=top;childLayout=stackLayout;horizontal=1;startSize=26;horizontalStack=0;resizeParent=1;resizeParentMax=0;resizeLast=0;collapsible=1;marginBottom=0;whiteSpace=wrap;html=1;" vertex="1" parent="WIyWlLk6GJQsqaUBKTNV-1">
          <mxGeometry x="40" y="-4170" width="360" height="360" as="geometry" />
        </mxCell>
        <mxCell id="FjF-tRFpFTwW2lLbXwbJ-18" value="-AmmoMesh: UStaticMeshComponent*&lt;br&gt;-AmmoType: AmmoType&lt;br&gt;-AmmoIconTexture: UTexture2D*&lt;br&gt;-AmmocollisionSphere: USphereComponent*" style="text;strokeColor=none;fillColor=none;align=left;verticalAlign=top;spacingLeft=4;spacingRight=4;overflow=hidden;rotatable=0;points=[[0,0.5],[1,0.5]];portConstraint=eastwest;whiteSpace=wrap;html=1;" vertex="1" parent="FjF-tRFpFTwW2lLbXwbJ-17">
          <mxGeometry y="26" width="360" height="74" as="geometry" />
        </mxCell>
        <mxCell id="FjF-tRFpFTwW2lLbXwbJ-19" value="" style="line;strokeWidth=1;fillColor=none;align=left;verticalAlign=middle;spacingTop=-1;spacingLeft=3;spacingRight=3;rotatable=0;labelPosition=right;points=[];portConstraint=eastwest;strokeColor=inherit;" vertex="1" parent="FjF-tRFpFTwW2lLbXwbJ-17">
          <mxGeometry y="100" width="360" height="8" as="geometry" />
        </mxCell>
        <mxCell id="FjF-tRFpFTwW2lLbXwbJ-20" value="+Ammo()&lt;br&gt;+Tick(DeltaTime: float): void&lt;br&gt;#BeginPlay(): void&lt;br&gt;#SetItemProperties(State: EItemState): void&lt;br&gt;#AmmoSphereOverlap(&lt;br&gt;&lt;span style=&quot;white-space: pre;&quot;&gt;&#x9;&lt;/span&gt;OverlappedComponent: UPrimitiveComponent*,&lt;br&gt;&lt;span style=&quot;white-space: pre;&quot;&gt;&#x9;&lt;/span&gt;OtherActor: AActor*,&lt;br&gt;&lt;span style=&quot;white-space: pre;&quot;&gt;&#x9;&lt;/span&gt;OtherComp: UPrimitiveComponent*,&lt;br&gt;&lt;span style=&quot;white-space: pre;&quot;&gt;&#x9;&lt;/span&gt;OtherBodyIndex: int32,&lt;br&gt;&lt;span style=&quot;white-space: pre;&quot;&gt;&#x9;&lt;/span&gt;bFromSweep: bool,&amp;nbsp;&lt;br&gt;&lt;span style=&quot;white-space: pre;&quot;&gt;&#x9;&lt;/span&gt;SweepResult: FHitResult&amp;amp;)&lt;br&gt;&lt;br&gt;+GetAmmoMesh()&lt;br&gt;+GetAmmoType()&lt;br&gt;&lt;br&gt;+EnableCustomDepth(): void&lt;br&gt;+DisableCustomDepth(): void" style="text;strokeColor=none;fillColor=none;align=left;verticalAlign=top;spacingLeft=4;spacingRight=4;overflow=hidden;rotatable=0;points=[[0,0.5],[1,0.5]];portConstraint=eastwest;whiteSpace=wrap;html=1;" vertex="1" parent="FjF-tRFpFTwW2lLbXwbJ-17">
          <mxGeometry y="108" width="360" height="252" as="geometry" />
        </mxCell>
        <mxCell id="FjF-tRFpFTwW2lLbXwbJ-35" style="edgeStyle=orthogonalEdgeStyle;rounded=0;orthogonalLoop=1;jettySize=auto;html=1;entryX=0.324;entryY=0.001;entryDx=0;entryDy=0;entryPerimeter=0;" edge="1" parent="WIyWlLk6GJQsqaUBKTNV-1" source="FjF-tRFpFTwW2lLbXwbJ-21" target="FjF-tRFpFTwW2lLbXwbJ-17">
          <mxGeometry relative="1" as="geometry" />
        </mxCell>
        <mxCell id="FjF-tRFpFTwW2lLbXwbJ-21" value="UBulletHitInterface: UInterface" style="swimlane;fontStyle=1;align=center;verticalAlign=top;childLayout=stackLayout;horizontal=1;startSize=26;horizontalStack=0;resizeParent=1;resizeParentMax=0;resizeLast=0;collapsible=1;marginBottom=0;whiteSpace=wrap;html=1;" vertex="1" parent="WIyWlLk6GJQsqaUBKTNV-1">
          <mxGeometry x="40" y="-4320" width="250" height="86" as="geometry" />
        </mxCell>
        <mxCell id="FjF-tRFpFTwW2lLbXwbJ-22" value="." style="text;strokeColor=none;fillColor=none;align=left;verticalAlign=top;spacingLeft=4;spacingRight=4;overflow=hidden;rotatable=0;points=[[0,0.5],[1,0.5]];portConstraint=eastwest;whiteSpace=wrap;html=1;" vertex="1" parent="FjF-tRFpFTwW2lLbXwbJ-21">
          <mxGeometry y="26" width="250" height="26" as="geometry" />
        </mxCell>
        <mxCell id="FjF-tRFpFTwW2lLbXwbJ-23" value="" style="line;strokeWidth=1;fillColor=none;align=left;verticalAlign=middle;spacingTop=-1;spacingLeft=3;spacingRight=3;rotatable=0;labelPosition=right;points=[];portConstraint=eastwest;strokeColor=inherit;" vertex="1" parent="FjF-tRFpFTwW2lLbXwbJ-21">
          <mxGeometry y="52" width="250" height="8" as="geometry" />
        </mxCell>
        <mxCell id="FjF-tRFpFTwW2lLbXwbJ-24" value="." style="text;strokeColor=none;fillColor=none;align=left;verticalAlign=top;spacingLeft=4;spacingRight=4;overflow=hidden;rotatable=0;points=[[0,0.5],[1,0.5]];portConstraint=eastwest;whiteSpace=wrap;html=1;" vertex="1" parent="FjF-tRFpFTwW2lLbXwbJ-21">
          <mxGeometry y="60" width="250" height="26" as="geometry" />
        </mxCell>
        <mxCell id="FjF-tRFpFTwW2lLbXwbJ-36" style="edgeStyle=orthogonalEdgeStyle;rounded=0;orthogonalLoop=1;jettySize=auto;html=1;entryX=0.599;entryY=-0.002;entryDx=0;entryDy=0;entryPerimeter=0;" edge="1" parent="WIyWlLk6GJQsqaUBKTNV-1" source="FjF-tRFpFTwW2lLbXwbJ-25" target="FjF-tRFpFTwW2lLbXwbJ-17">
          <mxGeometry relative="1" as="geometry" />
        </mxCell>
        <mxCell id="FjF-tRFpFTwW2lLbXwbJ-25" value="IBulletHitInterface" style="swimlane;fontStyle=1;align=center;verticalAlign=top;childLayout=stackLayout;horizontal=1;startSize=26;horizontalStack=0;resizeParent=1;resizeParentMax=0;resizeLast=0;collapsible=1;marginBottom=0;whiteSpace=wrap;html=1;" vertex="1" parent="WIyWlLk6GJQsqaUBKTNV-1">
          <mxGeometry x="320" y="-4320" width="310" height="86" as="geometry" />
        </mxCell>
        <mxCell id="FjF-tRFpFTwW2lLbXwbJ-26" value="." style="text;strokeColor=none;fillColor=none;align=left;verticalAlign=top;spacingLeft=4;spacingRight=4;overflow=hidden;rotatable=0;points=[[0,0.5],[1,0.5]];portConstraint=eastwest;whiteSpace=wrap;html=1;" vertex="1" parent="FjF-tRFpFTwW2lLbXwbJ-25">
          <mxGeometry y="26" width="310" height="26" as="geometry" />
        </mxCell>
        <mxCell id="FjF-tRFpFTwW2lLbXwbJ-27" value="" style="line;strokeWidth=1;fillColor=none;align=left;verticalAlign=middle;spacingTop=-1;spacingLeft=3;spacingRight=3;rotatable=0;labelPosition=right;points=[];portConstraint=eastwest;strokeColor=inherit;" vertex="1" parent="FjF-tRFpFTwW2lLbXwbJ-25">
          <mxGeometry y="52" width="310" height="8" as="geometry" />
        </mxCell>
        <mxCell id="FjF-tRFpFTwW2lLbXwbJ-28" value="+BulletHit(HitResult, Shooter, Shootercontroller)" style="text;strokeColor=none;fillColor=none;align=left;verticalAlign=top;spacingLeft=4;spacingRight=4;overflow=hidden;rotatable=0;points=[[0,0.5],[1,0.5]];portConstraint=eastwest;whiteSpace=wrap;html=1;" vertex="1" parent="FjF-tRFpFTwW2lLbXwbJ-25">
          <mxGeometry y="60" width="310" height="26" as="geometry" />
        </mxCell>
        <mxCell id="FjF-tRFpFTwW2lLbXwbJ-34" style="edgeStyle=orthogonalEdgeStyle;rounded=0;orthogonalLoop=1;jettySize=auto;html=1;entryX=0.171;entryY=-0.007;entryDx=0;entryDy=0;entryPerimeter=0;" edge="1" parent="WIyWlLk6GJQsqaUBKTNV-1" source="FjF-tRFpFTwW2lLbXwbJ-30" target="FjF-tRFpFTwW2lLbXwbJ-17">
          <mxGeometry relative="1" as="geometry">
            <Array as="points">
              <mxPoint x="30" y="-4275" />
              <mxPoint x="30" y="-4172" />
            </Array>
          </mxGeometry>
        </mxCell>
        <mxCell id="FjF-tRFpFTwW2lLbXwbJ-30" value="EAmmoType: enum class: uint8" style="swimlane;fontStyle=0;childLayout=stackLayout;horizontal=1;startSize=26;fillColor=none;horizontalStack=0;resizeParent=1;resizeParentMax=0;resizeLast=0;collapsible=1;marginBottom=0;whiteSpace=wrap;html=1;" vertex="1" parent="WIyWlLk6GJQsqaUBKTNV-1">
          <mxGeometry x="-270" y="-4320" width="270" height="90" as="geometry" />
        </mxCell>
        <mxCell id="FjF-tRFpFTwW2lLbXwbJ-31" value="EAT_9mm UMETA(DisplayName = &quot;9mm&quot;&lt;br&gt;EAT_AR_UMETA(DisplayName=&quot;AssaultRifle&quot;&lt;br&gt;EAT_NAX UMETA(DisplayName=&quot;DefaultMAX&quot;" style="text;strokeColor=none;fillColor=none;align=left;verticalAlign=top;spacingLeft=4;spacingRight=4;overflow=hidden;rotatable=0;points=[[0,0.5],[1,0.5]];portConstraint=eastwest;whiteSpace=wrap;html=1;" vertex="1" parent="FjF-tRFpFTwW2lLbXwbJ-30">
          <mxGeometry y="26" width="270" height="64" as="geometry" />
        </mxCell>
        <mxCell id="FjF-tRFpFTwW2lLbXwbJ-37" value="Enemy: Acaracter, IBulletHitINterface" style="swimlane;fontStyle=1;align=center;verticalAlign=top;childLayout=stackLayout;horizontal=1;startSize=26;horizontalStack=0;resizeParent=1;resizeParentMax=0;resizeLast=0;collapsible=1;marginBottom=0;whiteSpace=wrap;html=1;" vertex="1" parent="WIyWlLk6GJQsqaUBKTNV-1">
          <mxGeometry x="-1030" y="-1830" width="750" height="1410" as="geometry" />
        </mxCell>
        <mxCell id="FjF-tRFpFTwW2lLbXwbJ-38" value="-ImpactParticles: UParticleSystem* // Particles to spawn when hit by bullets&lt;br&gt;-ImpactSound: USoundCue*&lt;br&gt;-Health: float&lt;br&gt;-MaxHealth: float&lt;br&gt;-HeadBone: FString&lt;br&gt;-HealthBarDisplayTime: float&lt;br&gt;-HealthBarTimer: FTimerHandle&lt;br&gt;&lt;br&gt;-HitMontage: UAnimMontage*&lt;br&gt;HitReactTimer: FTimerHandle&lt;br&gt;-HitReactTimeMIn: float&lt;br&gt;-HitReactTimeMax: float&lt;br&gt;-bCanHitReact: bool&lt;br&gt;-HitNumbers: TMap&amp;lt;UUserWidget*, FVector&amp;gt;&lt;br&gt;-HitNumberDestroyTime: float&lt;br&gt;-BehaviorTree: UBehaviorTree*&lt;br&gt;-PatrolPoint: FVector&lt;br&gt;-PatrolPoint2: FVector&lt;br&gt;-EnemyController: AEnemyController*&lt;br&gt;-AgroSphere: USphereComponent*&lt;br&gt;-bStunned: bool&lt;br&gt;-StunChance: float&lt;br&gt;-bInAttackRange: bool&lt;br&gt;-CombatRangeSphere: USphereComponent*&lt;br&gt;-AttackMontage: UAnimMontage*&lt;br&gt;-&lt;br&gt;// The Four attack montage section names&lt;br&gt;-AttackLFast: FName&lt;br&gt;-AttackRFast: FName&lt;br&gt;-AttackL: FName&lt;br&gt;-AttackR: FName&lt;br&gt;&lt;br&gt;-LeftWeaponCollision: UBoxComponent*&lt;br&gt;-RightWeaponCollision: UBoxComponent*&lt;br&gt;-BaseDamage: float&lt;br&gt;-LeftWeaponSocket: FName&lt;br&gt;-RightWeaponSocket: FName&lt;br&gt;-bCanAttack: bool&lt;br&gt;-AttackWaitTimer: FTimerHandle&lt;br&gt;-AttackWaitTime: float&lt;br&gt;-DeathMontage: UAnimMontage*&lt;br&gt;-bDying: bool&lt;br&gt;-DeathTimer: FTimerHandle&lt;br&gt;-DeathTime: float&lt;br&gt;-AmmoBlueprint: UClass*" style="text;strokeColor=none;fillColor=none;align=left;verticalAlign=top;spacingLeft=4;spacingRight=4;overflow=hidden;rotatable=0;points=[[0,0.5],[1,0.5]];portConstraint=eastwest;whiteSpace=wrap;html=1;" vertex="1" parent="FjF-tRFpFTwW2lLbXwbJ-37">
          <mxGeometry y="26" width="750" height="664" as="geometry" />
        </mxCell>
        <mxCell id="FjF-tRFpFTwW2lLbXwbJ-39" value="" style="line;strokeWidth=1;fillColor=none;align=left;verticalAlign=middle;spacingTop=-1;spacingLeft=3;spacingRight=3;rotatable=0;labelPosition=right;points=[];portConstraint=eastwest;strokeColor=inherit;" vertex="1" parent="FjF-tRFpFTwW2lLbXwbJ-37">
          <mxGeometry y="690" width="750" height="8" as="geometry" />
        </mxCell>
        <mxCell id="FjF-tRFpFTwW2lLbXwbJ-40" value="+AEnemy()&lt;br&gt;&lt;br&gt;#BeginPlay(): void&lt;br&gt;#ShowHealthBar(): void&lt;br&gt;#ShowHealthBar_Implementation: void&lt;br&gt;#HideHealthBar(): void&lt;br&gt;#Die(): void&lt;br&gt;#PlayHitMontage(Section: FName, PlayRate: float): void&lt;br&gt;#ResetHitReactTimer(): void&lt;br&gt;#StoreHitNumber(HitNumber: UUserWidget*, Location: FVector): void&lt;br&gt;#DestroyHitNumber(HitNumber: UUserWidget*): void&lt;br&gt;#UpdateHitNumbers(): void&lt;br&gt;&lt;br&gt;#AgroSphereOverlap(&lt;br&gt;&lt;span style=&quot;white-space: pre;&quot;&gt;&#x9;&lt;/span&gt;OverlappedComponent: UPrimitiveComponent*,&lt;br&gt;&lt;span style=&quot;white-space: pre;&quot;&gt;&#x9;&lt;/span&gt;OtherActor: AAtor*,&lt;br&gt;&lt;span style=&quot;white-space: pre;&quot;&gt;&#x9;&lt;/span&gt;OtherBodyIndex: int32,&lt;br&gt;&lt;span style=&quot;white-space: pre;&quot;&gt;&#x9;&lt;/span&gt;bFromSweep: bool,&lt;br&gt;&lt;span style=&quot;white-space: pre;&quot;&gt;&#x9;&lt;/span&gt;SweepResult: FHitResult&amp;amp;): void&lt;br&gt;#SetStunned(Stunned: bool): void&lt;br&gt;#CombatRangeOverlap(&lt;br&gt;&lt;span style=&quot;white-space: pre;&quot;&gt;&#x9;&lt;/span&gt;OverlappedComponent: UPrimitiveComponent*,&lt;br&gt;&lt;span style=&quot;white-space: pre;&quot;&gt;&#x9;&lt;/span&gt;OtherActor: AActor*,&lt;br&gt;&lt;span style=&quot;white-space: pre;&quot;&gt;&#x9;&lt;/span&gt;OtherComp: UPrimitiveComponent*,&lt;br&gt;&lt;span style=&quot;white-space: pre;&quot;&gt;&#x9;&lt;/span&gt;OtherBodyINdex: int32)&lt;br&gt;" style="text;strokeColor=none;fillColor=none;align=left;verticalAlign=top;spacingLeft=4;spacingRight=4;overflow=hidden;rotatable=0;points=[[0,0.5],[1,0.5]];portConstraint=eastwest;whiteSpace=wrap;html=1;" vertex="1" parent="FjF-tRFpFTwW2lLbXwbJ-37">
          <mxGeometry y="698" width="750" height="712" as="geometry" />
        </mxCell>
      </root>
    </mxGraphModel>
  </diagram>
</mxfile>
